Music_UntitledSong:
	channel_count 4
	channel 1, Music_UntitledSong_Ch1
	channel 2, Music_UntitledSong_Ch2
	channel 3, Music_UntitledSong_Ch3
	channel 4, Music_UntitledSong_Ch4

Music_UntitledSong_Ch1:
	tempo 256
	volume 7, 7
	note_type 12, 15, 8
.mainLoop:
	octave 2
	volume_envelope 5, 7
	note F#, 8
	note F#, 2
	octave 3
	note F#, 1
	note F#, 1
	note F#, 1
	note F#, 1
	note F#, 1
	note F#, 1
	note F#, 1
	note F#, 1
	note F#, 1
	note F#, 1
	note F#, 1
	note F#, 1
	note F#, 1
	note F#, 1
	note F#, 1
	note F#, 1
	note F#, 1
	note F#, 1
	note F#, 1
	note F#, 1
	note F#, 1
	note F#, 1
	note F#, 1
	note F#, 1
	note F#, 1
	note F#, 1
	note F#, 1
	note F#, 1
	note F#, 1
	note F#, 2
	octave 8
	rest 16
	rest 16
	rest 16
	rest 16
	rest 16
	rest 16
	rest 16
	rest 16
	rest 16
	rest 16
	rest 16
	rest 16
	rest 14
	note_type 12, 15, 8
	rest 9
	sound_loop 0, .mainLoop

Music_UntitledSong_Ch2:
	note_type 12, 15, 8
.mainLoop:
	octave 4
	duty_cycle 0
	vibrato 0, 0, 0
	volume_envelope 5, 7
	note D_, 8
	note D_, 2
	octave 3
	note B_, 1
	note B_, 1
	note B_, 1
	note B_, 1
	note B_, 1
	note A_, 1
	note A_, 1
	note A_, 1
	note A_, 1
	note A_, 1
	note A_, 1
	note A_, 1
	note A_, 1
	note A_, 1
	note B_, 1
	note B_, 1
	note B_, 1
	note B_, 1
	note B_, 1
	note B_, 1
	note B_, 1
	note A_, 1
	note A_, 1
	note A_, 1
	note A_, 1
	note A_, 1
	note A_, 1
	note A_, 1
	note A_, 1
	note B_, 2
	octave 8
	rest 16
	rest 16
	rest 16
	rest 16
	rest 16
	rest 16
	rest 16
	rest 16
	rest 16
	rest 16
	rest 16
	rest 16
	rest 14
	note_type 12, 15, 8
	rest 9
	sound_loop 0, .mainLoop

Music_UntitledSong_Ch3:
	note_type 12, 1, 0
.mainLoop:
	octave 4
	rest 8
	note F#, 2
	volume_envelope 3, 0
	vibrato 0, 0, 0
	note D_, 1
	note D_, 1
	note D_, 1
	note D_, 1
	note D_, 1
	note C#, 1
	note C#, 1
	note C#, 1
	note C#, 1
	note C#, 1
	note C#, 1
	note C#, 1
	note C#, 1
	note C#, 1
	note D_, 1
	note D_, 1
	note D_, 1
	note D_, 1
	note D_, 1
	note D_, 1
	note D_, 1
	note C#, 1
	note C#, 1
	note C#, 1
	note C#, 1
	note C#, 1
	note C#, 1
	note C#, 1
	note C#, 1
	note D_, 2
	rest 1
	volume_envelope 3, 9
	vibrato 8, 8, 5
	note F#, 2
	note F#, 2
	note F#, 2
	note E_, 2
	note C#, 1
	octave 3
	note A_, 1
	rest 3
	note B_, 1
	octave 4
	note F#, 2
	note F#, 2
	note E_, 1
	note D_, 1
	note E_, 6
	rest 6
	note G_, 2
	note G_, 2
	note G_, 2
	note F#, 2
	note E_, 2
	note D_, 2
	rest 1
	note D_, 1
	note F#, 2
	note F#, 2
	note E_, 2
	note D_, 2
	note F#, 6
	rest 16
	rest 16
	octave 8
	rest 16
	rest 16
	rest 16
	rest 16
	rest 16
	rest 16
	rest 16
	rest 1
	note_type 12, 1, 0
	rest 9
	sound_loop 0, .mainLoop

Music_UntitledSong_Ch4:
	toggle_noise 0
	drum_speed 12
.mainLoop:
	rest 16
	rest 16
	rest 16
	rest 16
	rest 16
	rest 16
	rest 16
	rest 16
	rest 16
	rest 16
	rest 16
	rest 16
	rest 16
	rest 16
	rest 16
	rest 16
	sound_loop 0, .mainLoop
